<svg width="887" height="746" viewBox="0 0 887 746" fill="none" xmlns="http://www.w3.org/2000/svg">
<path d="M642.287 294.28C615.337 413.082 615.619 472.707 640.895 524.395C654.429 552.072 632.917 588.279 602.983 580.986C136.216 467.271 202.079 353.702 327.683 170.131C461.172 -24.9651 692.828 71.4881 642.287 294.28Z" fill="#EBB463"/>
<path d="M474.638 184.04C395.189 241.75 259.288 253.047 148.939 248.787C114.956 247.475 96.521 292.865 124.661 311.961C447.97 531.363 655.783 467.549 729.116 334.918C809.873 188.859 618.654 79.4297 474.638 184.04Z" fill="#7A8595"/>
<path d="M475.893 289.671C549.954 339.631 677.376 342.519 773.88 333.437C797.478 331.216 811.374 362.23 792.466 376.524C515.662 585.779 331.632 537.997 264.147 425.371C191.223 303.666 350.449 205.049 475.893 289.671Z" fill="#1F2B3F"/>
<path d="M673.61 334.16C672.847 333.975 672.225 334.131 671.752 334.454C671.472 334.16 671.182 333.871 670.862 333.595C668.782 331.798 664.925 334.19 666.723 336.509C672.407 343.846 662.86 349.081 654.946 348.15C650.424 347.621 646.234 345.414 642.272 343.474C640.815 342.758 638.335 343.283 638.05 345.04C635.87 358.385 620.847 349.418 615.055 346.424C614.022 345.891 613.09 347.097 613.83 347.872C620.957 355.362 637.785 360.752 642.605 349.607C647.242 351.821 652.389 353.809 657.491 354.158C656.249 355.333 655.874 357.168 657.611 358.568C671.305 369.599 668.535 387.843 656.154 398.781C643.095 410.313 624.051 412.887 606.673 413.416C569.623 414.547 532.329 413.884 495.252 414.02C458.645 414.157 422.036 414.419 385.429 414.499C368.103 414.536 345.18 417.949 329.091 411.467C308.858 403.311 305.149 381.909 315.658 365.704C320.275 378.926 343.18 378.623 347.692 364.074C357.944 373.263 374.938 369.535 378.71 357.56C380.012 359.845 382.019 361.728 384.442 363.178C374.215 369.612 367.958 383.117 381.257 390.6C390.416 395.753 402.18 391.455 411.859 395.787C419.699 399.296 424.083 406.316 433.495 406.984C441.779 407.575 442.339 403.598 447.081 399.253C457.643 389.574 471.647 397.677 484.666 396.227C502.714 394.214 516.978 380.618 512.621 363.682C513.991 363.272 515.326 362.674 516.608 361.842C519.463 359.993 521.453 357.46 522.265 354.699C526.84 359.475 534.536 360.807 541.573 357.704C542.173 362.362 545.368 366.466 550.765 368.222C558.017 370.584 564.626 367.353 569.403 362.645C573.393 372.75 584.177 380.424 596.729 378.19C610.932 375.661 618.774 361.514 614.76 349.416C613.78 346.468 608.995 347.69 609.717 350.684C615.445 374.416 576.75 382.171 573.366 357.15C573.048 354.799 569.858 353.67 568.306 355.9C563.901 364.234 556.747 363.568 546.84 353.901C547.418 351.611 544.471 350.043 542.571 351.634C537.479 349.849 532.389 348.066 527.297 346.281C549.328 344.726 571.376 343.073 593.286 340.765C617.739 338.189 644.267 333.538 662.728 317.495C664.155 316.253 663.76 314.399 662.613 313.286C662.98 310.778 663.253 308.275 663.475 305.774C663.67 305.879 663.885 305.972 664.145 306.027C673.12 307.899 683.089 304.538 690.088 312.046C698.362 320.92 685.171 336.958 673.61 334.16ZM582.537 464.89C550.298 470.285 516.2 470.303 483.518 470.533C450.461 470.764 417.331 469.76 384.379 467.321C370.123 466.265 353.817 464.81 343.015 455.193C332.189 445.556 329.794 429.88 328.222 416.522C333.069 418.485 338.423 419.734 344.108 420.042C370.183 421.453 396.743 420.165 422.868 420.236C447.829 420.304 472.789 420.311 497.75 420.393C522.707 420.475 547.665 420.724 572.628 420.708C595.419 420.694 620.454 422.698 642.087 414.805C643.007 414.467 643.917 414.098 644.822 413.708C643.995 443.836 611.76 460.002 582.537 464.89ZM297.502 351.124C293.425 344.115 296.749 336.312 304.346 332.644C306.746 331.486 305.351 328.597 303.081 328.38C292.262 322.721 291.66 317.653 301.271 313.175C303.576 312.504 305.871 312.452 308.153 313.02C312.438 313.521 316.365 315.195 320.27 316.816C320.897 320.564 321.64 324.304 322.617 328.009C322.385 328.845 322.605 329.776 323.592 330.25C340.648 338.456 358.896 343.666 377.725 346.837C377.627 347.165 377.53 347.494 377.457 347.815C376 347.391 374.245 348.025 374.45 349.785C376.092 363.86 356.779 371.646 348.177 358.36C347.042 356.605 344.25 357.446 344.13 359.361C343.08 376.083 320.895 374.3 318.32 359.845C319.635 358.892 318.617 356.922 316.902 357.266C309.613 358.73 301.324 357.695 297.502 351.124ZM493.04 355.029C491.083 354.215 488.613 355.152 488.623 357.341C488.66 366.117 479.551 370.048 471.834 365.082C470.739 364.377 469.464 365.109 469.045 366.076C467.952 365.976 466.68 366.651 466.837 367.754C468.012 375.93 462.885 379.359 454.921 379.022C447.016 378.687 444.284 376.769 439.892 370.609C438.867 369.168 436.71 369.184 435.68 370.609C427.861 381.427 408.282 376.439 410.889 361.945C411.224 360.084 409.422 358.812 407.54 359.594C395.033 364.797 381.857 359.66 381.717 347.485C419.799 353.299 460.073 351.064 497.59 348.376C503.744 347.934 509.909 347.507 516.073 347.077C515.898 347.512 515.831 348 516.023 348.556C520.885 362.544 499.832 357.845 493.04 355.029ZM471.097 368.917C480.209 374.467 491.333 370.492 493.917 361.238C498.292 362.959 503.087 364.439 507.721 364.387C510.596 375.693 503.119 386.241 491.178 390.146C482.288 393.051 474.054 391.571 465.12 390.142C457.023 388.844 451.014 388.183 444.662 393.336C443.567 394.225 443.667 396.026 442.614 396.872C433.188 404.451 429.29 401.61 421.884 396.343C418.629 394.029 415.612 391.507 411.782 389.984C407.945 388.457 404.11 388.078 399.953 387.948C397.476 387.869 393.198 388.781 390.869 387.83C387.064 383.071 383.259 378.315 379.455 373.559C380.972 369.772 383.399 366.721 386.674 364.357C392.439 366.926 399.87 367.307 406.28 364.884C407.037 379.929 426.193 386.749 437.672 375.401C443.164 381.863 451.506 387.251 460.835 384.51C468.577 382.235 472.979 375.659 471.097 368.917ZM365.761 203.77C398.523 171.685 443.232 159.638 490.125 157.068C535.999 154.555 580.302 166.341 613.475 196.177C647.324 226.625 662.671 270.996 655.539 313.713C655.474 314.1 655.496 314.458 655.556 314.8C633.523 327.867 609.583 332.4 583.392 334.712C553.375 337.364 523.292 339.733 493.222 341.842C436.687 345.807 381.917 344.771 328.094 327.347C328.089 327.318 328.102 327.295 328.097 327.265C319.96 283.09 331.866 236.965 365.761 203.77ZM698.862 316.207C696.808 302.956 676.047 297.976 664.145 302.007C663.995 302.057 663.873 302.142 663.743 302.217C667.728 238.914 626.456 179.326 559.197 158.24C520.03 145.96 473.752 148.848 434.292 158.853C399.885 167.574 369.186 187.13 348.087 213.38C325.229 241.814 315.05 277.554 319.56 312.286C310.681 307.155 298.367 303.434 290.995 312.443C284.89 319.896 289.135 328.636 297.049 331.766C282.625 343.971 296.194 368.399 314.855 361.491C314.863 361.657 314.888 361.812 314.9 361.977C314.383 361.904 313.843 362.013 313.415 362.464C295.167 381.715 304.704 405.142 325.172 415.172C324.494 442.218 333.234 465.043 365.401 470.923C382.619 474.07 400.715 474.261 418.194 475.075C439.949 476.087 461.735 476.555 483.518 476.441C505.296 476.329 527.075 475.636 548.803 474.293C566.249 473.217 584.085 472.008 600.806 467.002C627.741 458.937 651.891 439.019 651.081 411.446C651.071 411.139 651.006 410.867 650.919 410.612C672.07 398.181 685.314 371.826 662.77 353.864C662.768 353.862 662.765 353.862 662.763 353.86C664.858 353.458 666.913 352.692 668.88 351.436C673.715 348.353 675.727 343.157 674.224 338.542C687.106 340.92 700.67 327.874 698.862 316.207Z" fill="#F6F6F6"/>
<path d="M381.479 212.93C380.997 213.844 380.197 214.624 379.724 215.516C379.594 215.58 379.492 215.65 379.407 215.728C379.412 215.705 379.409 215.682 379.414 215.662C379.707 213.936 380.779 210.76 382.671 209.319C382.271 210.511 382.076 211.797 381.479 212.93ZM385.964 205.928C382.776 205.005 379.977 206.473 378.074 208.79C376.169 211.108 373.987 214.946 374.857 217.933C375.282 219.396 376.454 220.454 378.117 220.666C380.267 220.938 381.936 219.622 383.201 218.183C385.266 215.833 387.748 211.444 386.401 208.313C387.284 207.707 387.369 206.334 385.964 205.928Z" fill="#F6F6F6"/>
<path d="M411.053 197.535C410.211 199.997 407.443 199.106 406.238 197.316C405.048 195.546 405.356 193.323 405.828 191.299C408.821 192.553 412.145 194.34 411.053 197.535ZM414.725 193.378C413.13 189.803 408.803 187.71 405.021 186.483C402.626 185.708 400.954 189.251 403.276 190.257C403.286 190.259 403.294 190.264 403.304 190.268C402.161 193.622 401.439 197.405 404.091 200.328C406.296 202.76 410.393 203.631 413.115 201.351C415.463 199.386 415.885 195.982 414.725 193.378Z" fill="#F6F6F6"/>
<path d="M407.285 226.811C405.478 229.045 402.7 226.3 402.271 224.456C401.878 222.768 402.395 220.965 402.968 219.259C405.653 220.997 409.73 223.79 407.285 226.811ZM412.185 223.142C411.422 219.355 407.855 216.491 404.473 214.501C402.208 213.167 400.248 215.433 400.881 217.292C399.016 220.527 397.658 224.467 399.728 227.876C401.468 230.744 405.245 232.515 408.645 230.862C411.607 229.421 412.767 226.024 412.185 223.142Z" fill="#F6F6F6"/>
<path d="M636.865 308.229C636.572 310.573 635.012 313.742 632.152 311.424C628.27 308.275 632.11 303.767 635.05 300.879C636.435 303.133 637.189 305.623 636.865 308.229ZM638.939 298.496C638.367 297.623 637.452 297.372 636.607 297.52C636.002 296.524 634.487 295.958 633.287 296.984C629.998 299.8 626.42 303.067 625.87 307.365C625.388 311.134 627.835 315.003 631.807 316.326C635.84 317.666 639.399 315.541 640.812 312.039C642.622 307.552 641.579 302.502 638.939 298.496Z" fill="#F6F6F6"/>
<path d="M642.018 284.93C641.245 285.753 635.263 281.451 634.608 280.926C633.093 279.711 631.784 278.341 630.619 276.866C632.501 277.454 634.316 278.195 636.033 279.171C636.793 279.602 643.248 283.617 642.018 284.93ZM641.92 278.71C638.046 275.719 633.558 273.642 628.621 272.575C626.267 272.064 625.234 275.162 627.269 275.924C629.166 279.677 631.889 282.999 635.431 285.607C637.953 287.465 642.758 290.653 645.382 287.121C647.62 284.109 644.328 280.571 641.92 278.71Z" fill="#F6F6F6"/>
<path d="M615.372 289.255C614.97 287.294 618.035 287.488 619.46 287.611C621.619 287.801 623.589 288.53 625.414 289.536C622.349 290.995 616.232 293.441 615.372 289.255ZM628.966 287.126C625.592 284.563 621.329 282.946 616.867 283.186C613.098 283.389 609.835 285.655 610.263 289.337C610.623 292.454 613.4 295.163 616.795 295.635C621.327 296.264 625.069 293.621 628.266 291.072C628.674 290.749 628.761 290.347 628.676 289.973C629.616 289.292 630.064 287.958 628.966 287.126Z" fill="#F6F6F6"/>
<path d="M553.72 181.565C553.327 181.675 552.955 181.809 552.57 181.928C552.287 181.946 552.007 182.03 551.735 182.192C545.868 184.171 541.036 187.347 537.698 192.421C536.694 193.948 537.976 196.053 539.953 196.007C543.968 195.918 547.99 194.489 550.777 191.787C552.485 190.131 555.067 186.504 554.552 183.857C555.962 183.232 555.344 181.107 553.72 181.565Z" fill="#F6F6F6"/>
<path d="M568.963 192.896C568.03 193.778 566.945 193.81 566.338 192.643C565.583 191.193 566.273 188.84 566.385 187.323C566.423 186.835 566.445 186.352 566.448 185.869C567.708 186.854 568.888 187.93 569.51 189.298C570.06 190.511 570.025 191.893 568.963 192.896ZM574.457 189.959C573.965 185.987 570.248 183.108 566.873 180.978C566.145 180.517 565.36 180.613 564.726 180.974C563.661 180.65 562.318 181.313 562.731 182.601C563.826 186.037 561.576 189.448 562.028 192.919C562.421 195.919 565.365 198.304 568.79 197.618C572.462 196.884 574.865 193.254 574.457 189.959Z" fill="#F6F6F6"/>
<path d="M481.827 258.536C480.489 256.97 478.415 258.774 478.632 260.233C478.992 262.661 479.799 264.859 479.31 267.358C479.03 268.79 476.35 275.16 474.422 273.161C473.028 271.715 474.687 267.319 475.24 265.689C476.182 262.921 477.735 260.554 479.377 258.101C480.419 256.546 477.97 254.768 476.582 256.136C473.09 259.578 463.143 277.814 474.517 277.999C483.924 278.152 486.381 263.874 481.827 258.536Z" fill="#F6F6F6"/>
<path d="M496.897 260.925C498.685 261.607 500.497 263.249 500.582 265.089C496.952 264.085 493.957 262.396 491.283 260.141C493.187 260.159 495.072 260.23 496.897 260.925ZM501.434 259.099C497.81 256.311 492.345 256.137 487.875 256.773C487.865 256.776 487.86 256.78 487.848 256.783C487.8 256.726 487.748 256.678 487.698 256.621C486.888 255.704 485.018 256.694 485.493 257.79C488.138 263.873 494.685 268.244 501.614 269.471C502.479 269.624 503.697 269.389 504.097 268.55C505.749 265.077 504.599 261.532 501.434 259.099Z" fill="#F6F6F6"/>
<path d="M490.84 289.228C487.021 291.105 487.326 285.598 487.508 283.676C487.741 281.237 488.468 278.925 489.545 276.713C490.975 280.865 495.352 287.012 490.84 289.228ZM492.613 273.587C491.78 272.547 490.328 272.573 489.585 273.389C489.07 273.245 488.468 273.348 488.061 273.886C484.808 278.191 478.414 294.005 489.69 293.608C500.997 293.211 496.637 278.621 492.613 273.587Z" fill="#F6F6F6"/>
<path d="M353.035 299.623C352.807 296.748 348.55 296.833 348.2 299.623C347.86 302.35 347.56 304.94 346.58 307.551C346.173 308.634 345.531 310.946 344.506 311.737C344.193 312.054 343.881 312.371 343.566 312.688C342.743 312.061 342.238 311.272 342.053 310.319C340.531 305.066 344.721 301.967 347.175 297.948C347.578 297.291 347.088 296.233 346.153 296.32C337.611 297.113 333.829 310.241 339.261 315.595C348.24 324.448 353.442 304.769 353.035 299.623Z" fill="#F6F6F6"/>
<path d="M369.193 315.287C368.226 316.568 364.851 311.566 364.459 310.645C363.904 309.343 363.711 308.018 363.784 306.698C364.466 307.209 365.136 307.729 365.669 308.321C366.624 309.379 370.226 313.919 369.193 315.287ZM362.446 300.902C360.797 300.914 360.134 302.416 360.719 303.647C360.777 303.768 360.857 303.878 360.927 303.992C359.659 307.095 359.649 310.533 361.084 313.645C362.576 316.885 366.714 321.081 371.056 319.893C380.012 317.448 368.836 300.863 362.446 300.902Z" fill="#F6F6F6"/>
</svg>
