<svg width="32" height="32" viewBox="0 0 32 32" fill="none" xmlns="http://www.w3.org/2000/svg">
<path d="M11.9998 29.3334C12.7362 29.3334 13.3332 28.7365 13.3332 28.0001C13.3332 27.2637 12.7362 26.6667 11.9998 26.6667C11.2635 26.6667 10.6665 27.2637 10.6665 28.0001C10.6665 28.7365 11.2635 29.3334 11.9998 29.3334Z" stroke="#1F2B3F" stroke-width="2" stroke-linecap="round" stroke-linejoin="round"/>
<path d="M26.6668 29.3334C27.4032 29.3334 28.0002 28.7365 28.0002 28.0001C28.0002 27.2637 27.4032 26.6667 26.6668 26.6667C25.9304 26.6667 25.3335 27.2637 25.3335 28.0001C25.3335 28.7365 25.9304 29.3334 26.6668 29.3334Z" stroke="#1F2B3F" stroke-width="2" stroke-linecap="round" stroke-linejoin="round"/>
<path d="M1.3335 1.33325H6.66683L10.2402 19.1866C10.3621 19.8004 10.696 20.3519 11.1836 20.7443C11.6711 21.1368 12.2811 21.3452 12.9068 21.3333H25.8668C26.4926 21.3452 27.1026 21.1368 27.5901 20.7443C28.0776 20.3519 28.4116 19.8004 28.5335 19.1866L30.6668 7.99992H8.00016" stroke="#1F2B3F" stroke-width="2" stroke-linecap="round" stroke-linejoin="round"/>
</svg>
