<svg width="119" height="102" viewBox="0 0 119 102" fill="none" xmlns="http://www.w3.org/2000/svg">
<rect y="4" width="119" height="92" rx="13" fill="#1F2B3F"/>
<path d="M37.3856 27.6872C57.8031 -5.12707 99.2826 15.2337 93.6227 54.1228C91.1066 71.4108 66.7808 96.8684 51.1953 88.9753C12.7363 69.4983 22.0878 52.2734 37.3856 27.6872Z" fill="#EBB463"/>
<path d="M28.8676 72.7271C6.21658 50.1973 24.7218 21.7785 53.0897 33.9644C66.2123 39.6014 83.3663 62.3493 75.3977 74.2018C57.8207 100.346 45.8244 89.5932 28.8676 72.7271Z" fill="#7A8595"/>
<path d="M83.375 48.4166C83.375 66.2083 60.5 81.4583 60.5 81.4583C60.5 81.4583 37.625 66.2083 37.625 48.4166C37.625 42.3498 40.035 36.5315 44.3249 32.2416C48.6148 27.9517 54.4332 25.5416 60.5 25.5416C66.5668 25.5416 72.3852 27.9517 76.6751 32.2416C80.965 36.5315 83.375 42.3498 83.375 48.4166Z" stroke="#1F2B3F" stroke-width="2" stroke-linecap="round" stroke-linejoin="round"/>
<path d="M60.5 56.0416C64.7112 56.0416 68.125 52.6278 68.125 48.4166C68.125 44.2055 64.7112 40.7916 60.5 40.7916C56.2888 40.7916 52.875 44.2055 52.875 48.4166C52.875 52.6278 56.2888 56.0416 60.5 56.0416Z" stroke="#1F2B3F" stroke-width="2" stroke-linecap="round" stroke-linejoin="round"/>
</svg>
