<svg width="280" height="222" viewBox="0 0 280 222" fill="none" xmlns="http://www.w3.org/2000/svg">
<mask id="path-1-outside-1_37_242" maskUnits="userSpaceOnUse" x="-3" y="-3" width="286" height="228" fill="black">
<rect fill="white" x="-3" y="-3" width="286" height="228"/>
<path d="M4.78049 213.136C1.90715 209.113 0.470485 205.378 0.470485 201.93C0.470485 195.034 4.49315 188.425 12.5385 182.104C26.9052 170.036 38.3985 157.393 47.0185 144.176C56.2132 130.384 61.6725 117.454 63.3965 105.386C58.7992 106.535 55.0638 107.11 52.1905 107.11C38.9732 107.11 27.4798 102.225 17.7105 92.456C7.94115 82.112 3.05649 69.7566 3.05649 55.39C3.05649 38.7246 8.22849 25.5073 18.5725 15.738C29.4912 5.39397 44.1452 0.221964 62.5345 0.221964C80.3492 0.221964 94.7158 6.5433 105.634 19.186C116.553 31.254 122.012 48.2066 122.012 70.044C122.012 92.456 115.116 116.305 101.324 141.59C87.5325 166.875 69.4305 189 47.0185 207.964C34.9505 217.159 26.0432 221.756 20.2965 221.756C15.1245 221.756 9.95249 218.883 4.78049 213.136ZM163.388 214.86C159.366 210.837 157.354 206.527 157.354 201.93C157.354 195.609 161.377 189.287 169.422 182.966C182.64 172.622 194.133 159.979 203.902 145.038C214.247 130.097 219.993 116.879 221.143 105.386C216.545 106.535 212.81 107.11 209.936 107.11C196.719 107.11 184.938 102.225 174.594 92.456C164.825 82.6866 159.941 70.3313 159.941 55.39C159.941 38.7246 165.113 25.5073 175.457 15.738C186.375 5.39397 201.029 0.221964 219.419 0.221964C237.808 0.221964 252.462 6.5433 263.381 19.186C274.299 31.254 279.758 48.2066 279.758 70.044C279.758 92.456 272.863 116.305 259.071 141.59C245.278 166.301 226.889 188.425 203.902 207.964C194.133 217.159 185.226 221.756 177.18 221.756C172.008 221.756 167.411 219.457 163.388 214.86Z"/>
</mask>
<path d="M4.78049 213.136L2.33929 214.88L2.43753 215.017L2.5506 215.143L4.78049 213.136ZM12.5385 182.104L14.3919 184.463L14.4305 184.433L14.4681 184.401L12.5385 182.104ZM47.0185 144.176L44.5223 142.512L44.5139 142.524L44.5057 142.537L47.0185 144.176ZM63.3965 105.386L66.3663 105.81L66.9973 101.393L62.6689 102.476L63.3965 105.386ZM17.7105 92.456L15.5294 94.5158L15.5589 94.547L15.5892 94.5773L17.7105 92.456ZM18.5725 15.738L20.6324 17.919L20.6357 17.9158L18.5725 15.738ZM105.634 19.186L103.364 21.1468L103.387 21.173L103.41 21.1987L105.634 19.186ZM101.324 141.59L103.958 143.027L101.324 141.59ZM47.0185 207.964L48.8366 210.35L48.8977 210.304L48.9563 210.254L47.0185 207.964ZM163.388 214.86L165.646 212.884L165.58 212.809L165.51 212.739L163.388 214.86ZM169.423 182.966L167.574 180.603L167.569 180.607L169.423 182.966ZM203.902 145.038L201.436 143.33L201.413 143.363L201.392 143.396L203.902 145.038ZM221.143 105.386L224.128 105.685L224.552 101.441L220.415 102.476L221.143 105.386ZM174.594 92.456L172.473 94.5773L172.503 94.6076L172.535 94.637L174.594 92.456ZM175.457 15.738L177.516 17.919L177.52 17.9158L175.457 15.738ZM263.381 19.186L261.11 21.1468L261.133 21.173L261.156 21.1987L263.381 19.186ZM259.071 141.59L261.69 143.052L261.697 143.039L261.704 143.027L259.071 141.59ZM203.902 207.964L201.96 205.678L201.902 205.727L201.846 205.779L203.902 207.964ZM7.22169 211.392C4.56018 207.666 3.47049 204.535 3.47049 201.93H-2.52951C-2.52951 206.221 -0.745877 210.56 2.33929 214.88L7.22169 211.392ZM3.47049 201.93C3.47049 196.333 6.70892 190.5 14.3919 184.463L10.685 179.745C2.27738 186.351 -2.52951 193.735 -2.52951 201.93H3.47049ZM14.4681 184.401C29.0191 172.178 40.7233 159.32 49.5313 145.815L44.5057 142.537C36.0737 155.466 24.7912 167.894 10.6089 179.807L14.4681 184.401ZM49.5146 145.84C58.8732 131.802 64.5605 118.451 66.3663 105.81L60.4266 104.962C58.7845 116.457 53.5531 128.966 44.5223 142.512L49.5146 145.84ZM62.6689 102.476C58.1772 103.598 54.7119 104.11 52.1905 104.11V110.11C55.4157 110.11 59.4211 109.472 64.1241 108.296L62.6689 102.476ZM52.1905 104.11C39.8081 104.11 29.0669 99.5698 19.8318 90.3346L15.5892 94.5773C25.8927 104.881 38.1382 110.11 52.1905 110.11V104.11ZM19.8915 90.3961C10.6538 80.615 6.05649 68.9989 6.05649 55.39H0.0564871C0.0564871 70.5143 5.22848 83.6089 15.5294 94.5158L19.8915 90.3961ZM6.05649 55.39C6.05649 39.3962 10.9918 27.024 20.6324 17.919L16.5126 13.5569C5.46517 23.9906 0.0564871 38.0531 0.0564871 55.39H6.05649ZM20.6357 17.9158C30.8787 8.21194 44.7324 3.22196 62.5345 3.22196V-2.77804C43.5579 -2.77804 28.1036 2.576 16.5093 13.5601L20.6357 17.9158ZM62.5345 3.22196C79.543 3.22196 93.0568 9.2122 103.364 21.1468L107.905 17.2251C96.3748 3.8744 81.1553 -2.77804 62.5345 -2.77804V3.22196ZM103.41 21.1987C113.68 32.5497 119.012 48.6923 119.012 70.044H125.012C125.012 47.721 119.427 29.9583 107.859 17.1732L103.41 21.1987ZM119.012 70.044C119.012 91.8309 112.309 115.186 98.6908 140.153L103.958 143.027C117.924 117.423 125.012 93.081 125.012 70.044H119.012ZM98.6908 140.153C85.0796 165.107 67.2156 186.944 45.0807 205.674L48.9563 210.254C71.6454 191.056 89.9854 168.643 103.958 143.027L98.6908 140.153ZM45.2004 205.578C39.2424 210.117 34.1522 213.453 29.9111 215.642C25.6099 217.862 22.4572 218.756 20.2965 218.756V224.756C23.8824 224.756 28.0568 223.351 32.6629 220.974C37.3291 218.565 42.7266 215.006 48.8366 210.35L45.2004 205.578ZM20.2965 218.756C16.3221 218.756 11.8967 216.558 7.01037 211.129L2.5506 215.143C8.00826 221.207 13.9269 224.756 20.2965 224.756V218.756ZM165.51 212.739C161.908 209.137 160.354 205.552 160.354 201.93H154.354C154.354 207.503 156.823 212.538 161.267 216.981L165.51 212.739ZM160.354 201.93C160.354 196.977 163.509 191.428 171.276 185.325L167.569 180.607C159.246 187.147 154.354 194.24 154.354 201.93H160.354ZM171.271 185.328C184.763 174.77 196.476 161.878 206.413 146.68L201.392 143.396C191.79 158.08 180.516 170.474 167.574 180.603L171.271 185.328ZM206.369 146.746C216.852 131.603 222.907 117.894 224.128 105.685L218.157 105.087C217.08 115.865 211.641 128.59 201.436 143.33L206.369 146.746ZM220.415 102.476C215.923 103.598 212.458 104.11 209.936 104.11V110.11C213.162 110.11 217.167 109.472 221.87 108.296L220.415 102.476ZM209.936 104.11C197.547 104.11 186.488 99.5624 176.654 90.2749L172.535 94.637C183.389 104.888 195.891 110.11 209.936 110.11V104.11ZM176.716 90.3346C167.558 81.1766 162.941 69.6072 162.941 55.39H156.941C156.941 71.0554 162.093 84.1967 172.473 94.5773L176.716 90.3346ZM162.941 55.39C162.941 39.3962 167.876 27.024 177.516 17.919L173.397 13.5569C162.349 23.9906 156.941 38.0531 156.941 55.39H162.941ZM177.52 17.9158C187.763 8.21194 201.616 3.22196 219.419 3.22196V-2.77804C200.442 -2.77804 184.988 2.576 173.393 13.5601L177.52 17.9158ZM219.419 3.22196C237.035 3.22196 250.823 9.23537 261.11 21.1468L265.651 17.2251C254.101 3.85123 238.581 -2.77804 219.419 -2.77804V3.22196ZM261.156 21.1987C271.426 32.5497 276.758 48.6923 276.758 70.044H282.758C282.758 47.721 277.173 29.9583 265.605 17.1732L261.156 21.1987ZM276.758 70.044C276.758 91.8309 270.055 115.186 256.437 140.153L261.704 143.027C275.67 117.423 282.758 93.081 282.758 70.044H276.758ZM256.451 140.128C242.845 164.506 224.691 186.356 201.96 205.678L205.845 210.25C229.087 190.495 247.712 168.096 261.69 143.052L256.451 140.128ZM201.846 205.779C192.286 214.778 184.09 218.756 177.18 218.756V224.756C186.362 224.756 195.981 219.539 205.959 210.149L201.846 205.779ZM177.18 218.756C173.032 218.756 169.213 216.96 165.646 212.884L161.131 216.835C165.61 221.954 170.985 224.756 177.18 224.756V218.756Z" fill="#1F2B3F" mask="url(#path-1-outside-1_37_242)"/>
</svg>
