<svg width="69" height="64" viewBox="0 0 69 64" fill="none" xmlns="http://www.w3.org/2000/svg">
<path d="M22.5512 17.6102C35.2683 -2.71256 60.8686 9.75101 57.2628 33.7859C55.6557 44.4976 40.601 60.2887 30.9227 55.425C7.1931 43.4999 13.0235 32.8362 22.5512 17.6102Z" fill="#EBB463"/>
<path d="M12.7791 44.7384C-3.20107 28.8437 9.85429 8.79434 29.8678 17.3915C39.1257 21.3683 51.2277 37.4169 45.6059 45.7788C33.2054 64.2234 24.7421 56.6374 12.7791 44.7384Z" fill="#7A8595"/>
<path d="M43 33.0001V45.5001H23V33.0001" stroke="#1F2B3F" stroke-width="2" stroke-linecap="round" stroke-linejoin="round"/>
<path d="M45.5 26.7501H20.5V33.0001H45.5V26.7501Z" stroke="#1F2B3F" stroke-width="2" stroke-linecap="round" stroke-linejoin="round"/>
<path d="M33 45.5001V26.7501" stroke="#1F2B3F" stroke-width="2" stroke-linecap="round" stroke-linejoin="round"/>
<path d="M33 26.7501H27.375C26.5462 26.7501 25.7513 26.4209 25.1653 25.8348C24.5792 25.2488 24.25 24.4539 24.25 23.6251C24.25 22.7963 24.5792 22.0015 25.1653 21.4154C25.7513 20.8294 26.5462 20.5001 27.375 20.5001C31.75 20.5001 33 26.7501 33 26.7501Z" stroke="#1F2B3F" stroke-width="2" stroke-linecap="round" stroke-linejoin="round"/>
<path d="M33 26.7501H38.625C39.4538 26.7501 40.2487 26.4209 40.8347 25.8348C41.4208 25.2488 41.75 24.4539 41.75 23.6251C41.75 22.7963 41.4208 22.0015 40.8347 21.4154C40.2487 20.8294 39.4538 20.5001 38.625 20.5001C34.25 20.5001 33 26.7501 33 26.7501Z" stroke="#1F2B3F" stroke-width="2" stroke-linecap="round" stroke-linejoin="round"/>
</svg>
